<svg id="Layer_1" data-name="Layer 1" xmlns="http://www.w3.org/2000/svg" viewBox="0 0 2000 2000"><defs><style>.cls-1{fill:#4f46e5;}</style></defs><g id="Logo_Final" data-name="Logo Final"><path class="cls-1" d="M1521,773.72H479a47.78,47.78,0,0,1-23.32-89.48l521-291.3a48.11,48.11,0,0,1,46.64,0l521,291.3A47.78,47.78,0,0,1,1521,773.72ZM598.27,694.87h803.46L1000,470.24Zm932.6,575.1H469.13a32.24,32.24,0,0,0-32.25,32.24v58.63a32.25,32.25,0,0,0,32.25,32.25H1530.87a32.25,32.25,0,0,0,32.25-32.25v-58.63A32.24,32.24,0,0,0,1530.87,1270ZM1000,543.71a48.41,48.41,0,1,1-48.4,48.41,48.4,48.4,0,0,1,48.4-48.41m0-45.06a93.47,93.47,0,1,0,93.46,93.47A93.57,93.57,0,0,0,1000,498.65ZM513.9,1197.21v31a17.34,17.34,0,0,0,17.34,17.34H727.76a17.34,17.34,0,0,0,17.34-17.34v-31a17.33,17.33,0,0,0-17.34-17.33H531.24A17.33,17.33,0,0,0,513.9,1197.21Zm196-57.79V814.9a16,16,0,0,0-16-16H565.1a16,16,0,0,0-16,16v324.52a16,16,0,0,0,16,16H693.9A16,16,0,0,0,709.93,1139.42Zm174.47,57.79v31a17.34,17.34,0,0,0,17.34,17.34h196.52a17.34,17.34,0,0,0,17.34-17.34v-31a17.33,17.33,0,0,0-17.34-17.33H901.74A17.33,17.33,0,0,0,884.4,1197.21Zm566.52-57.79V814.9a16,16,0,0,0-16-16H1306.1a16,16,0,0,0-16,16v324.52a16,16,0,0,0,16,16h128.8A16,16,0,0,0,1450.92,1139.42Zm-196,57.79v31a17.34,17.34,0,0,0,17.34,17.34h196.52a17.34,17.34,0,0,0,17.34-17.34v-31a17.33,17.33,0,0,0-17.34-17.33H1272.24A17.33,17.33,0,0,0,1254.9,1197.21Zm-174.47-57.79V814.9a16,16,0,0,0-16-16H935.6a16,16,0,0,0-16,16v324.52a16,16,0,0,0,16,16h128.8A16,16,0,0,0,1080.43,1139.42ZM601.24,1639.55A913,913,0,0,1,393,1425.93c-19-27.27-50.77-72.9-79.24-131.26a712.19,712.19,0,0,1-64.37-205.2c-13.45-88.3-10.13-178.34,9.87-267.64,17-76,41.74-131.5,52.3-155.22A796.33,796.33,0,0,1,437.44,468.82l40.31,57.68a42,42,0,0,0,74.59-12l70.2-234.6a42,42,0,0,0-38.66-54l-240.3-8.83-1.58,0h0a42,42,0,0,0-34.36,66l47.49,68A936.56,936.56,0,0,0,183.7,609.67c-19.07,42.83-43.24,102.17-61,181.57C98.87,897.56,95,1005,111,1110.55c30.29,198.89,122.7,331.6,167.12,395.39a1052.56,1052.56,0,0,0,240,246.26,58.18,58.18,0,0,0,34.76,11.43,58.87,58.87,0,0,0,48.33-25.27l13.23-19a58,58,0,0,0-13.19-79.76ZM1889,889.45c-30.29-198.89-122.7-331.61-167.12-395.39a1052.57,1052.57,0,0,0-240.59-246.72A57.45,57.45,0,0,0,1447,236.07,58.1,58.1,0,0,0,1399.24,261l-13.38,19.27a58.52,58.52,0,0,0,13.3,80.46A912.91,912.91,0,0,1,1607,574.07c19,27.27,50.77,72.9,79.24,131.26a712.19,712.19,0,0,1,64.37,205.2c13.45,88.3,10.13,178.34-9.87,267.64a826.2,826.2,0,0,1-178.14,353l-40.31-57.68a42,42,0,0,0-74.6,12l-70.19,234.6a42,42,0,0,0,38.66,54l240.3,8.83,1.58,0a42,42,0,0,0,34.36-66l-47.49-68a936.41,936.41,0,0,0,171.43-258.64c19.07-42.83,43.24-102.17,61-181.57C1901.13,1102.44,1905.05,995,1889,889.45Z"/></g></svg>